<svg width="187" height="25" viewBox="0 0 187 25" fill="none" xmlns="http://www.w3.org/2000/svg">
<path d="M6.56965 7.10063V9.02507H7.56505C7.94109 9.02507 8.32819 8.82599 8.72635 8.42783C9.14663 8.00755 9.45631 7.62045 9.65539 7.26653C9.87659 6.89049 10.0978 5.83979 10.319 4.11443C10.5402 2.36695 10.6508 1.12823 10.6508 0.398266H15.2296C15.2296 1.26095 15.108 2.61027 14.8647 4.44623C14.6213 6.28219 14.4001 7.41031 14.2011 7.83059C13.8693 8.56055 13.0287 9.54489 11.6794 10.7836C13.2499 12.1329 14.2674 13.2721 14.7319 14.2011C14.9531 14.6657 15.1743 16.0703 15.3955 18.415C15.6389 20.7376 15.7605 22.474 15.7605 23.6243H11.1817C11.1817 22.5846 11.0711 20.9588 10.8499 18.7468C10.6508 16.5127 10.4517 15.2187 10.2526 14.8647C9.56691 13.626 8.75953 13.0067 7.83049 13.0067H6.56965V23.6243H1.99081V9.09143C1.99081 7.29971 1.85809 6.06099 1.59265 5.37527C1.34933 4.66743 0.818453 3.80475 1.29172e-05 2.78723L3.98161 0.000106949C4.68945 0.464626 5.29775 1.32731 5.80651 2.58815C6.31527 3.82687 6.56965 5.33103 6.56965 7.10063ZM23.3647 1.82501C25.1343 0.608407 26.3398 0.000106949 26.9813 0.000106949C27.6228 0.000106949 28.6071 0.586287 29.9343 1.75865C31.2837 2.90889 32.1242 3.72733 32.456 4.21397C32.7878 4.67849 32.9537 5.29785 32.9537 6.07205C32.9537 7.57621 32.8321 8.47207 32.5887 8.75963C32.1242 9.46747 31.4053 10.297 30.432 11.2481C31.7814 12.5311 32.6219 13.5154 32.9537 14.2011C33.1307 14.6657 33.3187 16.0813 33.5178 18.4482C33.7169 20.7929 33.8164 22.5183 33.8164 23.6243H28.8394C28.8394 22.6289 28.7509 21.0694 28.574 18.9459C28.397 16.8224 28.1979 15.5394 27.9767 15.097C27.7776 14.6546 27.5343 14.2675 27.2468 13.9357H24.2937V23.6243H19.7149V9.09143C19.7149 7.29971 19.5822 6.06099 19.3167 5.37527C19.0734 4.66743 18.5425 3.80475 17.7241 2.78723L21.7057 0.000106949C22.4135 0.464626 22.9665 1.07293 23.3647 1.82501ZM24.2937 7.49879V10.0536H25.5878C25.8974 10.0536 26.2956 9.81033 26.7822 9.32369C27.2689 8.83705 27.5786 8.42783 27.7113 8.09603C27.8661 7.74211 27.9435 7.37713 27.9435 7.00109C27.9435 6.62505 27.8661 6.29325 27.7113 6.00569C27.5786 5.69601 27.3795 5.35315 27.114 4.97711C26.8486 4.60107 26.6274 4.41305 26.4504 4.41305C25.8532 4.41305 25.1011 4.55683 24.1942 4.84439C24.2606 5.70707 24.2937 6.59187 24.2937 7.49879ZM40.0602 2.15681C41.6307 0.719007 42.8252 0.000106949 43.6436 0.000106949C44.4621 0.000106949 45.6566 0.719007 47.2271 2.15681C48.7976 3.59461 49.7709 4.77803 50.1469 5.70707C50.3902 6.34855 50.5119 7.79741 50.5119 10.0536V23.6243H45.9331V18.6473H41.3542V23.6243H36.7754V10.0536C36.7754 7.79741 36.897 6.34855 37.1404 5.70707C37.5164 4.77803 38.4897 3.59461 40.0602 2.15681ZM41.3542 10.0536V14.6657H45.9331V10.0536C45.9331 8.23981 45.8446 7.13381 45.6676 6.73565C45.4907 6.31537 45.181 5.88403 44.7386 5.44163C44.3183 4.97711 43.9533 4.74485 43.6436 4.74485C43.334 4.74485 42.9579 4.97711 42.5155 5.44163C42.0952 5.88403 41.7966 6.31537 41.6197 6.73565C41.4427 7.13381 41.3542 8.23981 41.3542 10.0536ZM59.0283 6.07205L59.0615 7.49879V23.6243H54.4826V9.42323C54.4826 7.56515 54.3499 6.26007 54.0845 5.50799C53.8411 4.75591 53.3103 3.84899 52.4918 2.78723L56.4734 0.000106949C57.1149 0.420387 57.7121 1.13929 58.2651 2.15681C60.0126 0.719007 61.196 0.000106949 61.8154 0.000106949C62.4348 0.000106949 63.408 0.586287 64.7352 1.75865C66.0846 2.90889 66.9251 3.72733 67.2569 4.21397C67.5887 4.67849 67.7546 5.29785 67.7546 6.07205V23.6243H63.1426V6.73565C63.1426 6.53657 63.0541 6.29325 62.8772 6.00569C62.7223 5.69601 62.4679 5.35315 62.114 4.97711C61.7822 4.60107 61.4615 4.41305 61.1518 4.41305C60.8642 4.41305 60.4993 4.59001 60.0569 4.94393C59.6145 5.27573 59.2716 5.65177 59.0283 6.07205ZM76.2995 7.10063V9.02507H77.2949C77.6709 9.02507 78.058 8.82599 78.4562 8.42783C78.8765 8.00755 79.1862 7.62045 79.3852 7.26653C79.6064 6.89049 79.8276 5.83979 80.0488 4.11443C80.27 2.36695 80.3806 1.12823 80.3806 0.398266H84.9595C84.9595 1.26095 84.8378 2.61027 84.5945 4.44623C84.3512 6.28219 84.13 7.41031 83.9309 7.83059C83.5991 8.56055 82.7585 9.54489 81.4092 10.7836C82.9797 12.1329 83.9973 13.2721 84.4618 14.2011C84.683 14.6657 84.9042 16.0703 85.1254 18.415C85.3687 20.7376 85.4904 22.474 85.4904 23.6243H80.9115C80.9115 22.5846 80.8009 20.9588 80.5797 18.7468C80.3806 16.5127 80.1816 15.2187 79.9825 14.8647C79.2968 13.626 78.4894 13.0067 77.5603 13.0067H76.2995V23.6243H71.7207V9.09143C71.7207 7.29971 71.5879 6.06099 71.3225 5.37527C71.0792 4.66743 70.5483 3.80475 69.7299 2.78723L73.7115 0.000106949C74.4193 0.464626 75.0276 1.32731 75.5364 2.58815C76.0451 3.82687 76.2995 5.33103 76.2995 7.10063ZM93.36 9.48959H99.2992V13.5044H93.36V19.6095H101.29V23.6243H88.7811V3.18539L93.36 0.000106949H100.759V4.04807H94.5876L93.36 4.91075V9.48959ZM108.993 6.07205L109.026 7.49879V23.6243H104.447V9.42323C104.447 7.56515 104.314 6.26007 104.049 5.50799C103.806 4.75591 103.275 3.84899 102.456 2.78723L106.438 0.000106949C107.079 0.420387 107.677 1.13929 108.23 2.15681C109.977 0.719007 111.16 0.000106949 111.78 0.000106949C112.399 0.000106949 113.372 0.586287 114.7 1.75865C116.049 2.90889 116.89 3.72733 117.221 4.21397C117.553 4.67849 117.719 5.29785 117.719 6.07205V23.6243H113.107V6.73565C113.107 6.53657 113.019 6.29325 112.842 6.00569C112.687 5.69601 112.432 5.35315 112.078 4.97711C111.747 4.60107 111.426 4.41305 111.116 4.41305C110.829 4.41305 110.464 4.59001 110.021 4.94393C109.579 5.27573 109.236 5.65177 108.993 6.07205ZM130.843 23.6243V13.0067H126.264V23.6243H121.685V9.42323C121.685 7.54303 121.552 6.23795 121.287 5.50799C121.044 4.75591 120.513 3.84899 119.694 2.78723L123.676 0.000106949C124.384 0.464626 124.992 1.32731 125.501 2.58815C126.01 3.82687 126.264 5.33103 126.264 7.10063V9.02507H130.843V0.398266H135.422V23.6243H130.843ZM142.03 2.15681C143.601 0.719007 144.795 0.000106949 145.614 0.000106949C146.432 0.000106949 147.627 0.719007 149.197 2.15681C150.768 3.59461 151.741 4.77803 152.117 5.70707C152.36 6.34855 152.482 7.79741 152.482 10.0536V23.6243H147.903V18.6473H143.324V23.6243H138.746V10.0536C138.746 7.79741 138.867 6.34855 139.111 5.70707C139.487 4.77803 140.46 3.59461 142.03 2.15681ZM143.324 10.0536V14.6657H147.903V10.0536C147.903 8.23981 147.815 7.13381 147.638 6.73565C147.461 6.31537 147.151 5.88403 146.709 5.44163C146.288 4.97711 145.923 4.74485 145.614 4.74485C145.304 4.74485 144.928 4.97711 144.486 5.44163C144.065 5.88403 143.767 6.31537 143.59 6.73565C143.413 7.13381 143.324 8.23981 143.324 10.0536ZM170.189 0.398266V13.9689C170.189 16.2915 170.068 17.7403 169.824 18.3155C169.448 19.2224 168.464 20.4058 166.871 21.8657C165.301 23.3035 164.117 24.0224 163.321 24.0224C162.525 24.0224 161.33 23.3035 159.738 21.8657C158.167 20.4058 157.194 19.2224 156.818 18.3155C156.574 17.7403 156.453 16.2915 156.453 13.9689V9.15779C156.453 7.36607 156.32 6.10523 156.055 5.37527C155.811 4.64531 155.28 3.78263 154.462 2.78723L158.444 0.000106949C159.151 0.464626 159.76 1.37155 160.268 2.72087C160.777 4.04807 161.032 5.64071 161.032 7.49879V13.9689C161.032 15.7827 161.12 16.8998 161.297 17.3201C161.474 17.7182 161.773 18.1496 162.193 18.6141C162.635 19.0565 163.011 19.2777 163.321 19.2777C163.631 19.2777 163.996 19.0565 164.416 18.6141C164.858 18.1496 165.168 17.7182 165.345 17.3201C165.522 16.8998 165.61 15.7827 165.61 13.9689V0.398266H170.189ZM186.055 14.2675C186.299 14.6657 186.42 15.462 186.42 16.6565C186.42 17.8288 186.177 18.8242 185.69 19.6427C185.248 20.2841 184.308 21.18 182.87 22.3302C181.432 23.4584 180.37 24.0224 179.685 24.0224C178.468 24.0224 177.075 23.392 175.504 22.1312C173.934 20.8482 172.938 19.4436 172.518 17.9173L176.201 15.3956C176.555 16.4353 177.119 17.3864 177.893 18.2491C178.667 19.1118 179.209 19.5431 179.519 19.5431C179.851 19.5431 180.194 19.4436 180.547 19.2445C180.923 19.0233 181.211 18.8021 181.41 18.5809C181.698 18.227 181.841 17.674 181.841 16.9219C181.841 16.1698 181.664 15.7053 181.311 15.5283C180.868 15.1523 180.005 14.6546 178.723 14.0352C177.462 13.4159 176.289 12.7523 175.205 12.0444C174.122 11.3145 173.425 10.6066 173.115 9.92093C172.828 9.23521 172.684 8.35041 172.684 7.26653C172.684 6.16053 172.927 5.19831 173.414 4.37987C173.856 3.73839 174.796 2.85359 176.234 1.72547C177.672 0.575227 178.734 0.000106949 179.419 0.000106949C180.636 0.000106949 182.029 0.641587 183.6 1.92455C185.171 3.18539 186.166 4.57895 186.586 6.10523L182.903 8.66009C182.549 7.62045 181.985 6.66929 181.211 5.80661C180.437 4.92181 179.884 4.47941 179.552 4.47941C179.242 4.47941 178.899 4.57895 178.523 4.77803C178.147 4.97711 177.838 5.23149 177.594 5.54117C177.373 5.82873 177.263 6.33749 177.263 7.06745C177.263 7.77529 177.484 8.25087 177.926 8.49419C178.28 8.80387 179.088 9.29051 180.348 9.95411C183.578 11.7237 185.48 13.1615 186.055 14.2675Z" fill="#A68D53"/>
</svg>
